<?xml version="1.0" encoding="UTF-8" standalone="no"?>
<!DOCTYPE svg PUBLIC "-//W3C//DTD SVG 1.1//EN" "http://www.w3.org/Graphics/SVG/1.1/DTD/svg11.dtd">
<svg width="100%" height="100%" viewBox="0 0 1537 552" version="1.1" xmlns="http://www.w3.org/2000/svg" xmlns:xlink="http://www.w3.org/1999/xlink" xml:space="preserve" style="fill-rule:evenodd;clip-rule:evenodd;stroke-linejoin:round;stroke-miterlimit:2;fill:currentColor;">
    <g id="Logotype" transform="matrix(1,0,0,1,5.32907e-15,440)">
        <g transform="matrix(150,0,0,150,-12.9,108.9)">
            <path d="M0.086,-0.708L0.329,-0.708C0.374,-0.708 0.42,-0.701 0.465,-0.688C0.51,-0.675 0.551,-0.654 0.588,-0.625C0.625,-0.596 0.654,-0.56 0.677,-0.515C0.7,-0.47 0.711,-0.417 0.711,-0.354C0.711,-0.293 0.7,-0.241 0.677,-0.197C0.654,-0.152 0.625,-0.116 0.588,-0.087C0.551,-0.058 0.51,-0.036 0.465,-0.022C0.42,-0.007 0.374,-0 0.329,-0L0.086,-0L0.086,-0.708ZM0.185,-0.087L0.309,-0.087C0.352,-0.087 0.391,-0.093 0.428,-0.105C0.464,-0.117 0.495,-0.134 0.522,-0.157C0.548,-0.18 0.568,-0.208 0.583,-0.241C0.598,-0.274 0.605,-0.312 0.605,-0.354C0.605,-0.398 0.598,-0.437 0.583,-0.47C0.568,-0.503 0.548,-0.531 0.522,-0.554C0.495,-0.576 0.464,-0.593 0.428,-0.605C0.391,-0.616 0.352,-0.622 0.309,-0.622L0.185,-0.622L0.185,-0.087Z" style="fill-rule:nonzero;"/>
        </g>
        <g transform="matrix(150,0,0,150,136.05,108.9)">
            <path d="M0.115,-0L0.005,-0L0.312,-0.708L0.402,-0.708L0.706,-0L0.594,-0L0.522,-0.174L0.186,-0.174L0.115,-0ZM0.221,-0.261L0.486,-0.261L0.354,-0.593L0.221,-0.261Z" style="fill-rule:nonzero;"/>
        </g>
        <g transform="matrix(150,0,0,150,277.5,108.9)">
            <path d="M0.585,-0.142L0.587,-0.142L0.587,-0.708L0.686,-0.708L0.686,-0L0.561,-0L0.187,-0.578L0.185,-0.578L0.185,-0L0.086,-0L0.086,-0.708L0.215,-0.708L0.585,-0.142Z" style="fill-rule:nonzero;"/>
        </g>
        <g transform="matrix(150,0,0,150,430.8,108.9)">
            <rect x="0.086" y="-0.708" width="0.099" height="0.708" style="fill-rule:nonzero;"/>
        </g>
        <g transform="matrix(150,0,0,150,508.95,108.9)">
            <path d="M0.185,-0.088L0.555,-0.088L0.555,-0L0.086,-0L0.086,-0.708L0.54,-0.708L0.54,-0.621L0.185,-0.621L0.185,-0.409L0.519,-0.409L0.519,-0.324L0.185,-0.324L0.185,-0.088Z" style="fill-rule:nonzero;"/>
        </g>
        <g transform="matrix(150,0,0,150,636.6,108.9)">
            <path d="M0.185,-0.088L0.501,-0.088L0.501,-0L0.086,-0L0.086,-0.708L0.185,-0.708L0.185,-0.088Z" style="fill-rule:nonzero;"/>
        </g>
        <g transform="matrix(150,0,0,150,822.15,108.9)">
            <path d="M0.62,-0.562C0.599,-0.585 0.572,-0.604 0.539,-0.618C0.505,-0.632 0.469,-0.639 0.428,-0.639C0.387,-0.639 0.349,-0.632 0.316,-0.617C0.283,-0.602 0.254,-0.581 0.231,-0.555C0.208,-0.529 0.19,-0.499 0.177,-0.465C0.164,-0.43 0.158,-0.394 0.158,-0.355C0.158,-0.316 0.164,-0.279 0.177,-0.244C0.19,-0.209 0.208,-0.179 0.231,-0.154C0.254,-0.128 0.283,-0.108 0.317,-0.093C0.351,-0.078 0.389,-0.071 0.431,-0.071C0.464,-0.071 0.495,-0.074 0.523,-0.08C0.551,-0.086 0.575,-0.095 0.596,-0.106L0.596,-0.303L0.439,-0.303L0.439,-0.387L0.694,-0.387L0.694,-0.044C0.657,-0.024 0.616,-0.009 0.572,0.002C0.528,0.013 0.48,0.018 0.428,0.018C0.373,0.018 0.322,0.009 0.276,-0.01C0.229,-0.028 0.189,-0.054 0.156,-0.087C0.123,-0.12 0.097,-0.159 0.078,-0.205C0.059,-0.25 0.05,-0.3 0.05,-0.355C0.05,-0.41 0.059,-0.461 0.079,-0.507C0.097,-0.552 0.124,-0.591 0.158,-0.624C0.191,-0.656 0.231,-0.681 0.277,-0.699C0.323,-0.717 0.373,-0.726 0.427,-0.726C0.484,-0.726 0.534,-0.718 0.579,-0.701C0.623,-0.684 0.66,-0.662 0.689,-0.634L0.62,-0.562Z" style="fill-rule:nonzero;"/>
        </g>
        <g transform="matrix(150,0,0,150,976.35,108.9)">
            <rect x="0.086" y="-0.708" width="0.099" height="0.708" style="fill-rule:nonzero;"/>
        </g>
        <g transform="matrix(150,0,0,150,1054.5,108.9)">
            <path d="M0.185,-0.088L0.501,-0.088L0.501,-0L0.086,-0L0.086,-0.708L0.185,-0.708L0.185,-0.088Z" style="fill-rule:nonzero;"/>
        </g>
        <g transform="matrix(150,0,0,150,1163.25,108.9)">
            <path d="M0.107,-0.158C0.112,-0.133 0.124,-0.112 0.142,-0.095C0.16,-0.078 0.182,-0.07 0.209,-0.07C0.23,-0.07 0.248,-0.074 0.262,-0.082C0.275,-0.09 0.286,-0.101 0.294,-0.115C0.302,-0.128 0.308,-0.144 0.311,-0.163C0.314,-0.181 0.316,-0.2 0.316,-0.221L0.316,-0.708L0.415,-0.708L0.415,-0.217C0.415,-0.192 0.412,-0.166 0.407,-0.139C0.402,-0.112 0.392,-0.086 0.377,-0.063C0.362,-0.04 0.342,-0.02 0.316,-0.005C0.289,0.01 0.255,0.018 0.214,0.018C0.16,0.018 0.116,0.004 0.082,-0.024C0.048,-0.052 0.026,-0.088 0.015,-0.132L0.107,-0.158Z" style="fill-rule:nonzero;"/>
        </g>
        <g transform="matrix(150,0,0,150,1272.3,108.9)">
            <path d="M0.115,-0L0.005,-0L0.312,-0.708L0.402,-0.708L0.706,-0L0.594,-0L0.522,-0.174L0.186,-0.174L0.115,-0ZM0.221,-0.261L0.486,-0.261L0.354,-0.593L0.221,-0.261Z" style="fill-rule:nonzero;"/>
        </g>
        <g transform="matrix(150,0,0,150,1413.75,108.9)">
            <path d="M0.452,-0.164L0.454,-0.164L0.663,-0.708L0.817,-0.708L0.817,-0L0.718,-0L0.718,-0.592L0.716,-0.592L0.481,-0L0.418,-0L0.184,-0.592L0.182,-0.592L0.182,-0L0.086,-0L0.086,-0.708L0.24,-0.708L0.452,-0.164Z" style="fill-rule:nonzero;"/>
        </g>
    </g>
    <g id="Logomark">
        <g id="G" transform="matrix(1,0,0,1,608.15,0)">
            <path d="M320,160C320,240.687 260.145,307.504 182.452,318.434L182.496,295.684C240.368,286.144 286.108,240.421 295.673,182.559L205.014,182.559L205.014,160.044L320,160Z"/>
        </g>
        <g id="D" transform="matrix(1,0,0,1,608.15,0)">
            <path d="M160,41.809L160,320C71.694,320 0,248.306 0,160C0,71.694 71.694,0 160,0C185.719,0 210.028,6.081 231.567,16.884L221.511,36.993C202.999,27.708 182.105,22.482 160,22.482L160,22.487C152.35,22.487 137.534,24.311 137.534,24.311C72.306,35.048 22.482,91.751 22.482,160C22.482,228.249 72.306,284.952 137.534,295.689L137.534,43.945C144.808,42.543 152.319,41.809 160,41.809Z"/>
        </g>
    </g>
</svg>
